# xmcd
#
# Track frame offsets: 
#        150
#        21496
#        39170
#        55322
#        72800
#        88923
#        104712
#        122667
#        138228
#        159967
#        180731
#
# Disc length: 2750 seconds
#
# Revision: 0
# Processed by: cddbd v1.5.2PL0 Copyright (c) Steve Scherf et al.
# Submitted via: ExactAudioCopy v1.0b3
#
DISCID=940abc0b
DTITLE=Courtney Patton - Triggering A Flood
DYEAR=2013
DGENRE=Country
TTITLE0=Twisted
TTITLE1=Give Me A Break (Let Me Bend)
TTITLE2=The Fool
TTITLE3=Light Fades
TTITLE4=What I Didn't Say
TTITLE5=Walk Away
TTITLE6=Lamplight
TTITLE7=It's A Shame
TTITLE8=Ain't Lovin' Like This
TTITLE9=Better Man
TTITLE10=It's Not Easy
EXTD=
EXTT0=
EXTT1=
EXTT2=
EXTT3=
EXTT4=
EXTT5=
EXTT6=
EXTT7=
EXTT8=
EXTT9=
EXTT10=
PLAYORDER=
